<?xml version="1.0" encoding="utf-8"?>
<!-- Generator: Adobe Illustrator 20.1.0, SVG Export Plug-In . SVG Version: 6.00 Build 0)  -->
<svg version="1.1" id="Livello_1" xmlns="http://www.w3.org/2000/svg" xmlns:xlink="http://www.w3.org/1999/xlink" x="0px" y="0px"
	 viewBox="0 0 141.7 141.7" style="enable-background:new 0 0 141.7 141.7;" xml:space="preserve">
<style type="text/css">
	.st0{fill:#FFFFFF;}
</style>
<g id="Livello_111">
	<path class="st0" d="M0,137.2l34.9-28.7V49.7L0,78.4V137.2z M70.6,77.9L36.5,49.7v58.7l34.2,28.1V77.9z M81.9,21.9
		c0,6.1-4.9,11-11,11c-6.1,0-11-4.9-11-11s4.9-11,11-11C77,11,81.9,15.9,81.9,21.9 M90.3,32.9c1.9-3.2,2.9-7,2.9-11
		C93.3,9.8,83.5,0,71.3,0C59.2,0,49.4,9.8,49.4,21.9c0,5.3,1.9,10.2,5.1,14l16.9,24.4l17.2-24.7c0.6-0.8,1.2-1.6,1.7-2.4L90.3,32.9
		L90.3,32.9z M72.3,136.4l33.6-27.7V50L72.3,77.7V136.4z M142.7,137.2V78.4l-35.3-29v58.7L142.7,137.2z"/>
</g>
<g id="Livello_1_1_">
</g>
</svg>
